<svg id="SvgjsSvg1001" width="288" height="288" xmlns="http://www.w3.org/2000/svg" version="1.1" xmlns:xlink="http://www.w3.org/1999/xlink" xmlns:svgjs="http://svgjs.com/svgjs"><defs id="SvgjsDefs1002"></defs><g id="SvgjsG1008" transform="matrix(1,0,0,1,0,0)"><svg xmlns="http://www.w3.org/2000/svg" fill-rule="evenodd" stroke-linejoin="round" stroke-miterlimit="2" clip-rule="evenodd" viewBox="0 0 32 40" width="288" height="288"><path d="M18.861,15.074C18.73,15.074 18.599,15.082 18.469,15.096C16.557,15.298 15.088,16.93 15.088,18.854C15.088,19.877 15.504,20.858 16.24,21.57L56.693,62.023L56.693,62.539C52.671,58.921 47.373,56.693 41.567,56.693C29.089,56.693 18.89,66.899 18.89,79.377C18.89,91.856 29.089,102.062 41.567,102.062C53.937,102.062 64.06,92.031 64.237,79.702C64.247,79.594 64.252,79.486 64.252,79.377L64.252,69.582L99.382,104.712C100.1,105.543 101.144,106.021 102.242,106.021C104.315,106.021 106.021,104.315 106.021,102.242C106.021,101.144 105.543,100.1 104.712,99.382L64.252,58.922L64.252,41.567L98.26,41.567C98.268,41.567 98.276,41.567 98.283,41.567C100.351,41.567 102.054,39.87 102.062,37.803L102.062,22.685C102.062,22.679 102.062,22.674 102.062,22.669C102.062,20.596 100.356,18.89 98.283,18.89C98.276,18.89 98.268,18.89 98.26,18.89L60.458,18.89C58.39,18.898 56.693,20.601 56.693,22.669C56.693,22.674 56.693,22.679 56.693,22.685L56.693,37.109C56.617,37.541 56.617,37.983 56.693,38.415L56.693,51.363L21.57,16.24C20.862,15.501 19.884,15.08 18.861,15.074ZM64.252,26.449L94.496,26.449L94.496,34.008L64.252,34.008L64.252,26.449ZM41.567,64.252C49.962,64.252 56.693,70.983 56.693,79.377C56.693,87.772 49.962,94.496 41.567,94.496C33.173,94.496 26.449,87.772 26.449,79.377C26.449,70.983 33.173,64.252 41.567,64.252Z" transform="scale(.26458)" fill="#000000" class="color000 svgShape"></path><text y="47" font-family="'Helvetica Neue', Helvetica, Arial-Unicode, Arial, Sans-serif" font-size="5" font-weight="bold" svgjs:data="{&quot;leading&quot;:&quot;1.3&quot;}">Created by Warunk Icon</text><text y="52" font-family="'Helvetica Neue', Helvetica, Arial-Unicode, Arial, Sans-serif" font-size="5" font-weight="bold" svgjs:data="{&quot;leading&quot;:&quot;1.3&quot;}">from the Noun Project</text></svg></g></svg>